<?xml version="1.0" standalone="no"?>
<!DOCTYPE svg PUBLIC "-//W3C//DTD SVG 20010904//EN"
 "http://www.w3.org/TR/2001/REC-SVG-20010904/DTD/svg10.dtd">
<svg version="1.0" xmlns="http://www.w3.org/2000/svg"
 width="260.000000pt" height="260.000000pt" viewBox="0 0 260.000000 260.000000"
 preserveAspectRatio="xMidYMid meet">
<metadata>
Created by potrace 1.14, written by Peter Selinger 2001-2017
</metadata>
<g transform="translate(0.000000,260.000000) scale(0.100000,-0.100000)"
fill="#000000" stroke="none">
<path d="M1250 2549 c0 -3 -17 -5 -37 -4 -36 1 -119 -9 -173 -21 -14 -3 -33
-6 -42 -7 -10 -1 -18 -5 -18 -9 0 -4 -3 -7 -7 -6 -13 5 -153 -46 -153 -55 0
-4 -4 -6 -9 -2 -5 3 -12 1 -16 -5 -3 -5 -13 -10 -21 -10 -8 0 -32 -11 -54 -25
-22 -14 -40 -23 -40 -19 0 3 -7 -1 -15 -8 -30 -27 -89 -68 -100 -69 -8 0 -88
-72 -158 -143 -67 -68 -154 -183 -149 -198 1 -5 -2 -8 -8 -8 -5 0 -19 -19 -31
-42 -12 -24 -26 -46 -31 -49 -5 -3 -9 -10 -9 -15 1 -18 -23 -74 -33 -74 -5 0
-6 -3 -3 -7 4 -3 2 -11 -3 -18 -5 -6 -11 -20 -13 -31 -2 -10 -9 -32 -15 -47
-7 -15 -13 -41 -14 -57 -1 -17 -5 -30 -8 -30 -3 0 -6 -17 -6 -38 -2 -45 -11
-102 -17 -108 -3 -3 -7 2 -11 11 -4 11 -2 14 7 9 8 -5 7 -2 -2 9 -7 9 -14 17
-15 17 0 0 -2 -65 -3 -145 -1 -102 2 -143 9 -139 7 5 8 2 2 -7 -5 -8 -9 -37
-9 -66 0 -40 3 -49 12 -41 7 6 10 15 6 21 -3 5 -1 7 5 4 5 -4 8 -16 5 -26 -3
-10 0 -22 7 -26 8 -5 8 -10 -1 -21 -9 -11 -9 -14 1 -14 8 0 11 -2 8 -5 -3 -3
1 -34 9 -68 8 -34 15 -68 15 -74 1 -7 5 -13 10 -13 5 0 7 -4 3 -9 -3 -5 -1
-12 4 -16 6 -3 8 -12 4 -20 -3 -8 -1 -15 4 -15 6 0 16 -19 23 -42 8 -24 20
-50 27 -59 7 -9 10 -19 6 -22 -3 -4 -1 -7 5 -7 7 0 12 -5 12 -11 0 -14 71
-118 139 -204 63 -80 150 -165 169 -165 6 0 12 -4 12 -9 0 -17 230 -161 230
-144 0 4 4 3 8 -2 7 -10 33 -23 90 -46 15 -6 34 -15 43 -19 21 -11 139 -35
192 -39 5 -1 5 -7 1 -13 -6 -10 -4 -10 7 -2 18 13 57 10 72 -6 9 -10 9 -11 0
-6 -6 3 -14 2 -17 -3 -4 -5 67 -9 170 -9 96 0 173 2 170 5 -3 3 1 11 7 18 14
15 41 -1 30 -18 -3 -6 -1 -7 6 -3 9 6 9 11 1 21 -9 11 -7 14 7 14 50 2 73 6
73 11 0 4 12 6 28 5 15 -1 32 1 37 5 12 9 76 25 88 22 4 -1 7 2 7 8 0 5 9 10
20 10 11 0 20 4 20 8 0 5 6 9 13 9 19 0 147 66 147 76 0 4 5 5 10 2 6 -3 13 1
16 9 3 9 9 14 13 11 4 -2 19 7 34 21 14 13 29 24 33 24 13 0 109 84 147 128
20 24 37 40 37 36 0 -4 12 11 26 32 15 21 30 41 35 42 5 2 9 10 9 18 0 8 3 14
8 14 4 0 20 21 37 48 16 26 32 49 35 52 8 8 87 172 96 200 22 71 39 149 43
205 1 6 6 3 11 -5 6 -9 10 -10 10 -3 0 6 -4 15 -10 18 -11 7 -9 38 4 43 4 2
11 0 14 -4 4 -4 2 -4 -5 -1 -7 4 -10 1 -9 -8 5 -36 20 -11 22 35 1 45 0 49
-15 38 -12 -10 -12 -8 2 8 16 19 18 41 16 188 -1 91 -5 166 -10 166 -4 0 -6
-13 -4 -30 2 -16 0 -30 -5 -30 -6 0 -9 3 -8 8 1 4 -2 39 -6 77 -10 86 -48 210
-89 290 -17 33 -30 63 -29 68 1 4 -3 7 -8 7 -6 0 -10 5 -10 11 0 10 -76 128
-90 139 -3 3 -16 19 -28 37 -20 28 -96 105 -175 177 -15 15 -41 33 -58 41 -16
9 -29 19 -29 24 0 5 -13 14 -30 21 -16 7 -30 15 -30 19 0 4 -12 12 -27 18 -16
6 -39 18 -53 26 -65 38 -254 110 -263 100 -3 -2 -14 0 -25 6 -10 6 -36 11 -56
13 -20 1 -36 5 -36 8 0 3 -28 5 -63 5 -34 0 -97 2 -140 5 -42 3 -77 2 -77 -1z
m170 -63 c82 -5 116 -11 203 -32 4 -1 8 -2 10 -4 2 -2 7 -3 67 -18 19 -5 49
-16 67 -25 18 -10 39 -17 48 -17 8 0 15 -5 15 -11 0 -5 5 -7 10 -4 6 3 10 2
10 -4 0 -6 12 -14 27 -17 14 -4 35 -14 45 -23 10 -9 22 -16 26 -16 10 0 76
-47 80 -57 2 -4 10 -8 18 -8 8 0 14 -4 14 -8 0 -4 12 -15 28 -24 46 -27 172
-158 172 -179 0 -5 4 -9 9 -9 5 0 19 -16 31 -35 12 -20 27 -41 33 -48 21 -23
49 -75 82 -152 9 -22 21 -48 26 -58 5 -10 7 -23 3 -29 -4 -7 -3 -8 4 -4 8 5
12 -3 12 -24 0 -28 -2 -30 -20 -20 -12 7 -20 7 -20 1 0 -9 -37 -7 -68 4 -7 3
-11 1 -8 -3 2 -4 -147 -8 -332 -9 l-337 -1 1 229 c0 126 4 232 7 235 3 4 2 14
-2 23 -8 14 -29 16 -143 14 -73 0 -136 -2 -139 -2 -8 -1 -3 -46 6 -60 3 -6 2
-11 -3 -11 -5 0 -7 -11 -5 -24 3 -13 1 -26 -5 -30 -5 -3 -50 -6 -99 -7 -50 -1
-95 -4 -100 -8 -5 -3 -10 -17 -10 -31 0 -58 5 -55 -108 -52 l-104 2 2 -137 2
-138 -372 0 c-242 0 -373 4 -373 10 0 6 -4 4 -9 -3 -11 -18 -22 -17 -33 3 -6
10 -5 21 2 31 7 7 9 14 5 14 -4 0 -2 6 4 13 6 8 12 22 14 33 2 10 16 44 32 74
16 30 29 59 30 63 0 4 5 11 10 15 6 4 28 34 50 67 22 32 52 71 68 86 15 14 27
29 27 33 0 3 9 15 20 26 11 11 20 18 20 15 0 -2 17 13 38 34 20 21 52 48 70
61 19 12 46 33 60 47 14 13 36 29 49 36 12 7 48 26 80 42 32 17 60 33 61 38 2
4 15 7 28 7 13 0 24 4 24 8 0 5 6 9 13 10 6 0 33 7 59 15 25 9 49 13 52 10 3
-4 6 -1 6 6 0 8 7 11 15 7 8 -3 15 -2 15 3 0 4 6 8 13 8 6 1 32 4 57 7 25 4
83 9 130 12 47 3 87 7 88 9 2 2 9 2 15 -1 7 -2 41 -6 77 -8z m193 -405 c2 -9
4 -108 3 -221 l-1 -205 -60 -1 c-95 -1 -91 -7 -90 164 1 82 5 154 9 160 4 7 3
12 -1 12 -5 0 -8 21 -8 48 0 56 8 62 87 60 44 -1 59 -5 61 -17z m-218 -158
c-1 -27 3 -54 8 -60 5 -7 6 -13 1 -13 -5 0 -9 -13 -9 -30 0 -16 3 -30 6 -30 6
0 0 -82 -7 -89 -2 -2 1 -10 7 -18 9 -10 8 -13 -2 -13 -11 0 -11 -2 1 -10 10
-7 -11 -10 -70 -10 l-85 0 2 138 c0 75 2 145 2 154 1 14 14 18 74 21 39 1 73
4 73 5 1 1 1 -19 -1 -45z m-287 -69 c17 0 32 2 32 6 0 4 10 5 23 3 22 -4 22
-8 21 -101 -1 -124 -1 -122 -19 -116 -8 4 -41 7 -73 8 l-57 1 1 99 c1 70 5
101 15 107 7 4 16 5 19 1 3 -4 20 -7 38 -8z m-852 -277 c4 -3 12 -3 18 0 18
12 36 12 36 2 0 -6 5 -7 11 -4 10 7 152 10 174 5 6 -1 12 -1 15 0 15 7 80 5
80 -2 0 -5 5 -6 10 -3 7 4 10 -82 10 -249 0 -198 -3 -256 -12 -256 -7 -1 -112
-1 -233 -2 -252 -2 -242 -5 -240 91 1 28 -1 51 -4 51 -3 0 -6 40 -6 90 0 49 3
90 6 90 3 0 6 15 6 33 0 31 7 82 17 122 2 11 5 23 5 27 2 13 94 18 107 5z
m501 -1 c3 -3 14 -1 24 5 11 5 20 6 20 2 1 -4 3 -119 5 -255 2 -164 -1 -250
-8 -254 -9 -6 -54 -8 -110 -5 -15 1 -16 24 -14 249 0 136 4 252 8 258 7 10 65
11 75 0z m155 -1 c5 -7 8 -7 8 0 0 11 86 12 97 1 3 -3 12 -1 19 5 8 7 14 7 19
-1 4 -6 13 -7 23 -2 21 10 236 7 253 -4 7 -4 10 -3 6 3 -4 7 5 9 26 7 17 -1
46 -3 63 -3 20 -1 31 -6 31 -16 0 -8 -6 -15 -14 -15 -7 0 -13 -4 -13 -9 0 -5
-12 -12 -26 -15 -14 -4 -35 -16 -47 -27 -12 -11 -44 -33 -72 -49 -83 -50 -177
-111 -190 -124 -36 -35 -42 -79 -15 -111 21 -26 84 -64 112 -67 12 -2 28 -6
33 -10 13 -8 119 -3 134 6 14 9 50 18 78 20 11 0 19 4 17 7 -2 4 23 15 56 25
33 11 60 22 60 27 0 17 22 4 63 -38 25 -25 43 -45 41 -45 -2 0 14 -18 36 -40
22 -22 38 -40 36 -40 -2 0 25 -30 60 -66 35 -37 64 -72 64 -77 0 -6 3 -8 6 -4
6 6 54 -37 54 -48 0 -4 7 -13 15 -21 11 -11 12 -21 5 -33 -5 -10 -7 -21 -3
-24 3 -3 -6 -9 -21 -13 -33 -8 -54 6 -131 85 -91 95 -109 111 -121 111 -17 0
-32 -43 -23 -65 4 -11 8 -16 8 -11 1 5 27 -18 59 -49 31 -32 56 -62 55 -67 -2
-4 3 -8 11 -8 8 0 17 -7 20 -16 3 -9 11 -12 18 -8 7 4 10 4 6 -1 -4 -4 4 -22
18 -41 16 -21 23 -40 20 -52 -7 -20 -56 -49 -56 -32 0 6 -4 10 -9 10 -5 0 -23
14 -41 30 -18 17 -29 30 -25 30 3 0 -23 29 -59 65 -36 36 -63 65 -61 65 3 0
-3 8 -12 18 -10 10 -29 18 -43 18 -33 -1 -34 -32 0 -68 35 -38 50 -56 50 -61
0 -7 95 -101 101 -100 3 1 10 -12 16 -28 9 -23 8 -32 -2 -43 -8 -7 -11 -16 -8
-20 4 -3 -2 -7 -13 -7 -45 -3 -38 -8 -220 167 -61 58 -83 85 -78 97 3 10 2 17
-3 17 -5 0 -9 10 -10 21 -2 28 -29 57 -74 80 -32 16 -54 42 -51 60 0 3 -10 18
-24 34 -13 15 -24 24 -24 19 0 -5 -4 -3 -9 5 -5 8 -29 15 -56 16 -27 1 -51 8
-56 16 -5 8 -9 10 -9 6 0 -4 -10 3 -22 16 -48 50 -66 57 -110 41 -21 -7 -44
-17 -51 -21 -36 -23 -37 -17 -36 238 2 223 3 249 18 247 9 -2 19 -7 23 -13z
m886 2 c6 -5 12 -4 12 1 0 4 21 7 48 6 26 -1 54 -3 62 -3 13 -1 15 -26 15
-166 0 -91 3 -165 7 -165 4 0 5 -7 2 -15 -8 -20 -10 -105 -3 -105 3 0 6 -7 6
-15 0 -8 -4 -15 -9 -15 -4 0 -7 -6 -6 -12 5 -22 -54 -17 -105 8 -30 15 -82 59
-134 113 -47 49 -90 88 -96 86 -36 -9 -57 -18 -57 -25 0 -4 -8 -7 -17 -7 -10
0 -44 -12 -76 -26 -32 -15 -69 -28 -83 -29 -13 -1 -24 -5 -24 -8 0 -5 -98 -5
-110 -1 -3 2 -13 4 -24 6 -10 2 -23 8 -29 14 -6 6 -19 11 -28 11 -25 0 -32 38
-8 45 11 4 17 10 15 14 -3 4 16 18 42 31 26 14 56 33 66 42 11 10 24 18 29 18
4 0 15 6 22 13 19 16 37 30 61 44 10 6 52 32 92 57 40 25 77 46 82 46 6 0 10
5 10 11 0 5 5 7 10 4 6 -3 12 0 15 7 3 8 20 15 37 16 18 2 33 4 35 5 6 7 129
1 141 -6z m279 0 c6 -4 13 -2 15 5 3 8 9 8 24 0 18 -10 19 -23 19 -261 l0
-251 -62 0 c-53 0 -63 3 -64 18 -7 108 -2 479 6 488 10 12 43 13 62 1z m204
-3 c4 -2 10 0 13 5 4 6 18 6 36 1 17 -5 28 -6 26 -2 -5 8 93 7 101 -1 3 -3 11
-3 18 -1 19 8 34 -26 39 -91 1 -11 4 -24 8 -30 9 -16 5 -345 -5 -345 -4 0 -6
-4 -3 -8 2 -4 1 -14 -4 -22 -7 -11 -42 -14 -158 -14 -148 -1 -150 -1 -151 22
-2 27 -2 73 0 127 0 22 0 45 -1 50 -1 6 -2 13 -1 18 1 4 1 38 1 75 -1 95 -1
91 1 157 1 33 6 63 12 67 10 6 53 1 68 -8z m303 -452 c3 -5 -1 -9 -9 -9 -8 0
-12 4 -9 9 3 4 7 8 9 8 2 0 6 -4 9 -8z m-1570 -64 c16 -17 27 -48 17 -48 -5 0
-8 -7 -7 -17 0 -9 -19 -32 -44 -51 -25 -19 -59 -46 -76 -61 -49 -42 -65 -49
-91 -37 -28 13 -46 59 -30 75 6 6 7 11 2 11 -5 0 11 13 36 29 24 16 54 39 66
50 29 27 85 61 101 61 7 0 19 -6 26 -12z m-774 -61 c0 -5 6 -5 13 0 17 11 30
11 45 0 7 -6 12 -6 12 0 0 11 29 11 48 -1 6 -4 12 -3 12 3 0 10 18 10 37 -2 6
-4 14 -3 17 1 6 10 36 9 54 -2 6 -4 12 -3 12 3 0 8 20 8 40 1 3 -1 10 -1 15 0
30 7 65 6 65 -1 0 -5 11 -5 23 0 13 5 30 5 37 1 8 -5 18 -6 22 -4 19 12 57 13
64 3 4 -7 3 -9 -3 -6 -6 4 -16 -12 -23 -36 -28 -89 -6 -142 75 -178 29 -13 44
-27 53 -51 14 -40 71 -82 97 -72 10 4 16 3 13 -2 -3 -5 4 -27 16 -49 15 -28
34 -46 66 -61 31 -15 50 -32 62 -57 18 -39 55 -68 85 -68 17 0 58 8 58 11 0 1
9 3 20 5 11 2 21 9 23 15 2 5 8 8 13 4 5 -3 9 -1 9 4 0 15 48 11 61 -4 6 -8
15 -14 20 -14 4 0 20 -5 36 -12 81 -33 138 -24 191 29 8 7 26 12 40 10 36 -6
80 18 120 64 18 21 36 38 40 38 43 -6 92 35 95 80 1 17 5 31 10 31 4 0 7 6 7
14 0 7 11 22 26 32 31 23 55 72 50 101 -7 33 -34 80 -58 100 -13 10 -24 25
-26 33 -2 8 -9 18 -15 22 -11 7 -8 9 9 7 4 0 10 5 15 13 6 10 11 10 20 1 9 -9
16 -9 25 -2 8 7 14 7 19 -1 5 -8 11 -8 21 1 11 9 14 9 14 0 0 -9 5 -9 20 -1
14 8 20 8 20 0 0 -7 6 -8 19 0 14 7 22 7 27 -1 4 -7 9 -8 17 0 7 7 16 7 29 0
10 -5 18 -6 18 -2 0 5 21 7 48 6 57 -4 62 -4 87 -3 11 0 27 0 35 -1 8 0 25 2
38 5 12 2 22 1 22 -3 0 -10 33 -9 40 1 3 3 14 0 24 -8 11 -8 15 -14 10 -14 -6
0 -11 -6 -11 -12 -2 -51 -75 -245 -97 -260 -6 -4 -8 -8 -3 -8 10 0 -64 -110
-75 -110 -5 0 -7 -4 -3 -9 3 -6 -1 -13 -9 -18 -8 -4 -14 -11 -13 -15 1 -3 -16
-26 -38 -49 -22 -24 -38 -48 -37 -54 2 -5 1 -7 -3 -3 -4 3 -21 -8 -39 -25 -18
-18 -54 -50 -80 -72 -27 -22 -54 -45 -61 -52 -7 -7 -15 -10 -17 -7 -3 2 -13
-5 -23 -16 -10 -11 -23 -20 -30 -20 -6 0 -21 -9 -33 -20 -12 -12 -22 -18 -22
-14 0 3 -21 -7 -47 -22 -27 -15 -50 -27 -53 -27 -5 1 -28 -8 -77 -29 -54 -22
-182 -48 -258 -52 -33 -2 -64 -5 -70 -6 -5 -1 -14 -1 -20 0 -26 7 -61 4 -67
-5 -5 -6 -8 -6 -8 2 0 8 -9 9 -29 3 -16 -4 -32 -6 -35 -3 -3 3 -29 7 -58 9
-29 1 -53 3 -53 4 0 1 -9 3 -20 4 -20 3 -105 18 -115 21 -3 1 -14 5 -25 9 -37
14 -50 19 -60 22 -23 6 -80 29 -85 34 -3 3 -18 12 -35 20 -56 27 -196 121
-231 156 -20 19 -37 34 -39 34 -4 0 -52 49 -116 118 -64 69 -202 308 -212 368
-2 10 -8 28 -14 39 -6 11 -9 28 -8 37 2 10 -1 21 -6 24 -6 4 -6 10 0 18 11 13
81 16 81 3z m958 -29 c13 -18 13 -53 -1 -75 -4 -6 -44 -39 -88 -73 -45 -34
-90 -69 -100 -78 -23 -20 -75 -24 -88 -8 -5 6 -12 22 -15 36 -8 32 17 60 113
124 40 27 79 56 86 63 15 15 55 32 70 29 6 0 16 -9 23 -18z m126 -131 c20 -20
11 -58 -21 -86 -16 -14 -43 -38 -60 -53 -17 -14 -34 -24 -37 -21 -3 4 -6 2 -6
-4 0 -11 -88 -77 -107 -79 -24 -4 -61 35 -59 59 3 28 24 50 91 97 26 19 60 45
73 58 14 12 27 20 30 18 2 -3 11 1 19 9 18 18 60 19 77 2z m72 -152 c6 -6 15
-21 19 -34 6 -18 -3 -32 -51 -79 -32 -31 -60 -57 -63 -56 -3 1 -23 -10 -43
-23 -44 -29 -67 -27 -87 9 -19 33 -6 63 44 97 19 13 47 34 62 47 32 27 82 53
97 51 6 -1 16 -7 22 -12z m134 -133 c0 -7 5 -10 10 -7 6 3 15 -6 20 -20 20
-53 -35 -69 -117 -34 -20 8 -33 20 -33 32 0 10 4 16 9 13 9 -6 20 11 17 27 0
5 10 15 24 22 20 11 27 10 47 -4 12 -9 23 -22 23 -29z m-321 -525 c8 -10 7
-14 -4 -14 -8 0 -12 4 -9 8 2 4 -2 10 -8 12 -8 4 -9 6 -2 6 6 1 17 -5 23 -12z
m251 8 c0 -2 -10 -9 -22 -15 -22 -11 -22 -10 -4 4 21 17 26 19 26 11z m29 -12
c-6 -7 -15 -13 -20 -13 -5 0 -6 6 -3 13 3 8 11 14 19 14 11 0 12 -4 4 -14z
m-105 -1 c3 -5 -1 -9 -9 -9 -8 0 -12 4 -9 9 7 10 11 10 18 0z"/>
<path d="M2575 1559 c-4 -6 -5 -12 -2 -15 2 -3 7 2 10 11 7 17 1 20 -8 4z"/>
<path d="M2586 1533 c-6 -14 -5 -15 5 -6 7 7 10 15 7 18 -3 3 -9 -2 -12 -12z"/>
<path d="M55 1500 c3 -5 8 -10 11 -10 2 0 4 5 4 10 0 6 -5 10 -11 10 -5 0 -7
-4 -4 -10z"/>
<path d="M1118 3 c7 -3 16 -2 19 1 4 3 -2 6 -13 5 -11 0 -14 -3 -6 -6z"/>
</g>
</svg>
